# xmcd CD database file
#
# Track frame offsets:
#	150
#	6205
#	33628
#	59629
#	89157
#	131123
#	160540
#	188780
#	195412
#	223665
#	247252
#
# Disc length: 3603 seconds
#
# Revision: 0
# Processed by: cddbd v1.5.2PL0 Copyright (c) Steve Scherf et al.
# Submitted via: CDex 1.51
#
DISCID=a30e110b
DTITLE=Fraser Hollins - Aerial
DYEAR=2010
DGENRE=Jazz
TTITLE0=crux
TTITLE1=Lost In The Maze
TTITLE2=Currents
TTITLE3=For Richard Parker
TTITLE4=Way of Condor
TTITLE5=Vyana
TTITLE6=Skyward
TTITLE7=Alphe Crusis
TTITLE8=On Huayna Picchu
TTITLE9=Song of The Underdog
TTITLE10=All's well
EXTD=YEAR: 2010
EXTT0=
EXTT1=
EXTT2=
EXTT3=
EXTT4=
EXTT5=
EXTT6=
EXTT7=
EXTT8=
EXTT9=
EXTT10=
PLAYORDER=
